HIERARCHY
ROOT Hips
{
	OFFSET -0.001795 -0.223333 0.028219
	CHANNELS 6 Xposition Yposition Zposition Zrotation Yrotation Xrotation 
	JOINT LeftUpLeg
	{
		OFFSET 0.069520 -0.091406 -0.006815
		CHANNELS 3 Zrotation Yrotation Xrotation
		JOINT LeftLeg
		{
			OFFSET 0.034277 -0.375199 -0.004496
			CHANNELS 3 Zrotation Yrotation Xrotation
			JOINT LeftFoot
			{
				OFFSET -0.013596 -0.397961 -0.043693
				CHANNELS 3 Zrotation Yrotation Xrotation
				JOINT LeftToe
				{
					OFFSET 0.026358 -0.055791 0.119288
					CHANNELS 3 Zrotation Yrotation Xrotation
					End Site
					{
						OFFSET 0.000000 0.000000 0.000000
					}
				}
			}
		}
	}
	JOINT RightUpLeg
	{
		OFFSET -0.067670 -0.090522 -0.004320
		CHANNELS 3 Zrotation Yrotation Xrotation
		JOINT RightLeg
		{
			OFFSET -0.038290 -0.382569 -0.008850
			CHANNELS 3 Zrotation Yrotation Xrotation
			JOINT RightFoot
			{
				OFFSET 0.015774 -0.398415 -0.042312
				CHANNELS 3 Zrotation Yrotation Xrotation
				JOINT RightToe
				{
					OFFSET -0.025372 -0.048144 0.123348
					CHANNELS 3 Zrotation Yrotation Xrotation
					End Site
					{
						OFFSET 0.000000 0.000000 0.000000
					}
				}
			}
		}
	}
	JOINT Spine
	{
		OFFSET -0.002533 0.108963 -0.026696
		CHANNELS 3 Zrotation Yrotation Xrotation
		JOINT Spine1
		{
			OFFSET 0.005487 0.135180 0.001092
			CHANNELS 3 Zrotation Yrotation Xrotation
			JOINT Spine2
			{
				OFFSET 0.001457 0.052922 0.025425
				CHANNELS 3 Zrotation Yrotation Xrotation
				JOINT Neck
				{
					OFFSET -0.002778 0.213870 -0.042857
					CHANNELS 3 Zrotation Yrotation Xrotation
					JOINT Head
					{
						OFFSET 0.005152 0.064970 0.051349
						CHANNELS 3 Zrotation Yrotation Xrotation
						End Site
						{
							OFFSET 0.000000 0.000000 0.000000
						}
					}
				}
				JOINT LeftShoulder
				{
					OFFSET 0.078845 0.121749 -0.034090
					CHANNELS 3 Zrotation Yrotation Xrotation
					JOINT LeftArm
					{
						OFFSET 0.090977 0.030469 -0.008868
						CHANNELS 3 Zrotation Yrotation Xrotation
						JOINT LeftForeArm
						{
							OFFSET 0.259612 -0.012772 -0.027456
							CHANNELS 3 Zrotation Yrotation Xrotation
							JOINT LeftHand
							{
								OFFSET 0.249234 0.008986 -0.001171
								CHANNELS 3 Zrotation Yrotation Xrotation
								End Site
								{
									OFFSET 0.000000 0.000000 0.000000
								}
							}
						}
					}
				}
				JOINT RightShoulder
				{
					OFFSET -0.081759 0.118833 -0.038615
					CHANNELS 3 Zrotation Yrotation Xrotation
					JOINT RightArm
					{
						OFFSET -0.096012 0.032551 -0.009143
						CHANNELS 3 Zrotation Yrotation Xrotation
						JOINT RightForeArm
						{
							OFFSET -0.253742 -0.013329 -0.021401
							CHANNELS 3 Zrotation Yrotation Xrotation
							JOINT RightHand
							{
								OFFSET -0.255298 0.007772 -0.005559
								CHANNELS 3 Zrotation Yrotation Xrotation
								End Site
								{
									OFFSET 0.000000 0.000000 0.000000
								}
							}
						}
					}
				}
			}
		}
	}
}
MOTION
Frames: 11
Frame Time: 0.050000
0.000000 0.731086 0.000000 1.431870 5.922298 27.733514 17.093867 1.023651 -60.301616 -13.221543 8.015482 69.069848 11.061396 24.747851 -9.150662 0.000000 0.000000 0.000000 -9.988109 -2.502792 -84.538050 -1.524354 3.544268 68.323852 -0.911759 5.651864 -12.436926 0.000000 0.000000 0.000000 5.877716 -7.403636 50.705443 0.727980 -0.021522 -8.003407 -2.676167 6.976173 8.728244 15.471631 -4.997977 -23.932842 0.000000 0.000000 0.000000 -18.191371 -15.830915 4.778773 -32.241539 -8.528118 -1.341869 17.432892 -22.271754 -2.837348 0.000000 0.000000 0.000000 9.627678 2.663631 2.064035 34.202558 3.880735 -2.724893 -1.667792 18.036791 0.499728 0.000000 0.000000 0.000000 
-0.004327 0.719587 0.000394 1.235153 4.376554 27.206267 16.866076 1.532699 -61.294715 -11.860558 8.052562 74.950588 9.811757 21.098591 -10.773276 0.000000 0.000000 0.000000 -8.577397 -0.382201 -86.711913 -3.254623 5.694275 71.405673 -0.742853 6.607562 -12.615991 0.000000 0.000000 0.000000 5.671990 -7.231404 53.166220 1.266386 -0.201557 -8.635623 -3.429304 9.144115 7.406469 15.256207 -3.894688 -27.216285 0.000000 0.000000 0.000000 -15.909213 -15.397573 3.993504 -30.592387 -10.496483 -0.743185 12.499618 -20.289068 -1.747323 0.000000 0.000000 0.000000 13.097376 -0.519455 0.883059 30.578267 0.917447 -3.136598 -1.787460 20.600772 0.654853 0.000000 0.000000 0.000000 
-0.009063 0.706463 0.001640 1.455778 2.077373 25.825754 17.621860 2.672157 -59.642633 -12.351019 9.737752 77.561102 9.275709 19.356894 -13.620359 0.000000 0.000000 0.000000 -9.263604 0.521869 -86.938078 -2.254823 5.238414 73.385577 -1.212756 7.382452 -15.133494 0.000000 0.000000 0.000000 5.827673 -6.779091 54.399248 2.706779 -0.722408 -8.780570 -5.308830 10.724878 7.353223 17.952055 -4.670559 -28.821417 0.000000 0.000000 0.000000 -14.512647 -15.681960 3.918202 -32.490845 -9.008218 -1.046450 14.984794 -23.116133 -2.668052 0.000000 0.000000 0.000000 13.544229 -0.995806 0.858187 29.934347 -0.655316 -3.389062 -1.565365 22.363910 0.779979 0.000000 0.000000 0.000000 
-0.014709 0.697138 0.003655 2.189178 1.511610 26.286908 16.693143 2.416714 -60.523885 -10.890818 8.852148 80.516119 8.538537 16.915422 -15.755135 0.000000 0.000000 0.000000 -9.013409 1.035421 -89.495635 -2.982253 6.380646 76.180872 -1.063425 7.913310 -14.984907 0.000000 0.000000 0.000000 6.765833 -7.324062 55.026227 2.543967 -0.639340 -9.447821 -5.341531 8.519915 6.284214 16.904373 -3.876729 -30.801307 0.000000 0.000000 0.000000 -13.852807 -14.312643 3.900405 -30.971873 -10.292876 -0.861423 15.217329 -20.824797 -2.299391 0.000000 0.000000 0.000000 11.583383 -1.021480 0.199819 30.123414 -2.078529 -3.360273 -2.456047 23.378229 0.596030 0.000000 0.000000 0.000000 
-0.021776 0.685604 0.006946 2.896739 1.098771 25.885803 15.671444 1.967920 -60.110512 -11.080563 9.257025 81.809256 10.265749 22.069047 -16.930290 0.000000 0.000000 0.000000 -8.728481 1.506463 -90.240689 -3.546699 7.287118 78.282472 -1.588883 8.258332 -17.300123 0.000000 0.000000 0.000000 7.310202 -7.507412 54.659400 4.020198 -1.141092 -9.610317 -6.470391 8.755518 5.935190 17.328658 -4.366769 -29.455309 0.000000 0.000000 0.000000 -14.116623 -15.357640 4.337125 -29.589128 -9.686225 -0.908520 16.204843 -20.759534 -2.484967 0.000000 0.000000 0.000000 11.138835 -2.833438 -0.734590 29.996257 -2.133240 -3.342383 -1.290878 23.693694 0.858839 0.000000 0.000000 0.000000 
-0.030444 0.677161 0.011615 2.831529 -0.075141 24.993009 15.996237 2.495947 -59.010673 -10.930135 9.972067 84.169598 10.609524 22.921450 -17.417107 0.000000 0.000000 0.000000 -7.300536 3.702634 -90.691380 -4.768656 9.136602 80.386206 -1.841491 8.634134 -18.491138 0.000000 0.000000 0.000000 8.041574 -7.495366 54.267091 3.385103 -0.974656 -9.013195 -5.849670 8.313134 5.907623 16.807124 -4.526670 -28.423431 0.000000 0.000000 0.000000 -12.448798 -13.891839 3.894638 -29.051175 -11.515905 -0.667830 13.217379 -18.408359 -1.663246 0.000000 0.000000 0.000000 10.325346 -3.461610 -1.207253 29.954297 -1.575900 -3.229342 -1.187105 22.282265 0.793291 0.000000 0.000000 0.000000 
-0.040216 0.672013 0.017112 3.381137 -0.300957 23.779115 15.321899 2.125880 -57.576201 -9.748346 8.707584 84.917540 10.613824 22.808946 -16.758225 0.000000 0.000000 0.000000 -6.617669 4.429478 -89.855704 -5.126305 9.860562 81.873204 -2.336883 8.580915 -20.357375 0.000000 0.000000 0.000000 8.590325 -7.640947 53.767857 3.916361 -1.160775 -9.140787 -6.203388 7.475082 6.097358 16.744541 -4.685301 -28.185301 0.000000 0.000000 0.000000 -12.544863 -14.214708 4.239059 -27.004614 -10.594972 -0.861452 13.495568 -16.445142 -1.491349 0.000000 0.000000 0.000000 9.423987 -3.116635 -1.153427 31.894191 -1.669043 -3.409962 -1.525771 21.877564 0.693138 0.000000 0.000000 0.000000 
-0.050236 0.670515 0.022213 3.488976 -1.045895 22.801046 14.885371 2.118070 -56.751205 -8.600231 7.841652 86.289084 10.729359 22.823656 -14.067913 0.000000 0.000000 0.000000 -6.153433 5.330480 -89.235605 -4.627061 9.653835 82.979513 -2.566716 8.385877 -21.076270 0.000000 0.000000 0.000000 8.739116 -7.440048 53.592074 4.057632 -1.202202 -9.414247 -5.609786 7.396037 6.374872 16.917709 -5.013913 -27.481262 0.000000 0.000000 0.000000 -13.589856 -13.298121 3.814854 -23.479747 -11.614981 -0.734148 12.672678 -13.252621 -1.065356 0.000000 0.000000 0.000000 9.532062 -3.641866 -1.480443 32.442798 0.078997 -3.147011 -2.035381 20.304318 0.555591 0.000000 0.000000 0.000000 
-0.059309 0.673109 0.025968 3.614274 -1.550303 22.511661 14.618374 2.053128 -55.354252 -7.707145 6.956994 85.856815 10.905122 23.370350 -15.045162 0.000000 0.000000 0.000000 -5.532472 6.166455 -88.587764 -4.667161 9.807044 82.912375 -2.696958 8.248491 -21.447778 0.000000 0.000000 0.000000 8.681703 -7.119339 52.693161 4.783176 -1.435212 -9.802382 -5.421509 7.273980 7.180065 15.975335 -4.412338 -28.578617 0.000000 0.000000 0.000000 -12.237736 -13.166488 3.909225 -22.316973 -11.748472 -0.792993 12.738785 -10.657060 -0.858869 0.000000 0.000000 0.000000 9.302725 -3.121941 -1.254888 34.023144 0.338584 -3.248220 -2.716445 20.856498 0.459810 0.000000 0.000000 0.000000 
-0.066878 0.674090 0.028076 3.388605 -1.961534 22.054146 14.849175 2.251299 -54.550332 -6.996305 6.437183 86.560226 11.136126 23.942374 -15.009242 0.000000 0.000000 0.000000 -5.189394 6.756344 -88.358944 -3.914879 9.161998 83.407572 -2.681723 7.881404 -21.113686 0.000000 0.000000 0.000000 9.049110 -7.168677 52.585543 4.721129 -1.324637 -11.247544 -4.534448 7.134694 8.237320 14.984433 -3.940490 -29.138889 0.000000 0.000000 0.000000 -12.525498 -12.020205 3.446124 -19.610971 -12.928498 -0.762998 13.695931 -6.679864 -0.572892 0.000000 0.000000 0.000000 8.680991 -3.345212 -1.399546 35.775575 1.787163 -3.081413 -3.450605 20.609818 0.341058 0.000000 0.000000 0.000000 
-0.072519 0.674407 0.028980 3.151429 -2.598648 21.902735 15.120252 2.546782 -53.922402 -6.667353 6.522721 87.618984 11.272398 24.328024 -16.032220 0.000000 0.000000 0.000000 -5.376010 7.005826 -88.065143 -2.764836 7.954638 83.245124 -2.870933 7.569156 -21.608939 0.000000 0.000000 0.000000 9.367517 -7.133944 52.537546 5.076540 -1.419339 -11.708926 -4.431738 7.276178 8.438198 14.387774 -3.790351 -28.695188 0.000000 0.000000 0.000000 -11.235697 -11.966436 3.501140 -17.911298 -13.781648 -0.744584 13.759891 -3.053178 -0.253574 0.000000 0.000000 0.000000 8.007755 -2.749491 -1.091451 37.952932 3.135348 -2.875000 -5.195544 22.093994 0.100942 0.000000 0.000000 0.000000 
